<svg width="64" height="73" viewBox="0 0 64 73" fill="none" xmlns="http://www.w3.org/2000/svg">
<g clip-path="url(#clip0_8_77)">
<path d="M53.6978 47.4828H10.3022C7.37414 47.4828 5 45.1087 5 42.1805V11.8195C5 8.89141 7.37414 6.51727 10.3022 6.51727H53.6978C56.6259 6.51727 59 8.89141 59 11.8195V42.1805C59 45.1087 56.6259 47.4828 53.6978 47.4828Z" fill="#DD352E"/>
<path d="M24.5518 36.8038V17.1962C24.5518 16.1805 25.6569 15.5492 26.5321 16.066L43.1231 25.8697C43.9824 26.3781 43.9824 27.622 43.1231 28.1294L26.5321 37.9332C25.6569 38.4508 24.5518 37.8196 24.5518 36.8038Z" fill="white"/>
</g>
<path d="M8.67578 66.8418C8.55273 67.8945 8.16309 68.708 7.50684 69.2822C6.85514 69.8519 5.98698 70.1367 4.90234 70.1367C3.72656 70.1367 2.7832 69.7152 2.07227 68.8721C1.36589 68.029 1.0127 66.901 1.0127 65.4883V64.5312C1.0127 63.6061 1.17676 62.7926 1.50488 62.0908C1.83757 61.389 2.30697 60.8512 2.91309 60.4775C3.51921 60.0993 4.22103 59.9102 5.01855 59.9102C6.07585 59.9102 6.9235 60.2064 7.56152 60.7988C8.19954 61.3867 8.57096 62.2025 8.67578 63.2461H7.35645C7.24251 62.4531 6.99414 61.8789 6.61133 61.5234C6.23307 61.168 5.70215 60.9902 5.01855 60.9902C4.18001 60.9902 3.52148 61.3001 3.04297 61.9199C2.56901 62.5397 2.33203 63.4215 2.33203 64.5654V65.5293C2.33203 66.6094 2.55762 67.4684 3.00879 68.1064C3.45996 68.7445 4.09115 69.0635 4.90234 69.0635C5.63151 69.0635 6.18978 68.8994 6.57715 68.5713C6.96908 68.2386 7.22884 67.6621 7.35645 66.8418H8.67578ZM14.5342 68.3252L17.0498 62.6035H18.6289V70H17.3643V64.6201L14.9717 70H14.0967L11.6562 64.5039V70H10.3916V62.6035H12.0322L14.5342 68.3252ZM20.3311 66.2334C20.3311 65.5088 20.4723 64.8571 20.7549 64.2783C21.042 63.6995 21.4385 63.2529 21.9443 62.9385C22.4548 62.624 23.0358 62.4668 23.6875 62.4668C24.6947 62.4668 25.5081 62.8154 26.1279 63.5127C26.7523 64.21 27.0645 65.1374 27.0645 66.2949V66.3838C27.0645 67.1038 26.9255 67.751 26.6475 68.3252C26.374 68.8949 25.9798 69.3392 25.4648 69.6582C24.9544 69.9772 24.3665 70.1367 23.7012 70.1367C22.6986 70.1367 21.8851 69.7881 21.2607 69.0908C20.641 68.3936 20.3311 67.4707 20.3311 66.3223V66.2334ZM21.6025 66.3838C21.6025 67.2041 21.7917 67.8626 22.1699 68.3594C22.5527 68.8561 23.0632 69.1045 23.7012 69.1045C24.3438 69.1045 24.8542 68.8538 25.2324 68.3525C25.6107 67.8467 25.7998 67.1403 25.7998 66.2334C25.7998 65.4222 25.6061 64.766 25.2188 64.2646C24.8359 63.7588 24.3255 63.5059 23.6875 63.5059C23.0632 63.5059 22.5596 63.7542 22.1768 64.251C21.7939 64.7477 21.6025 65.4587 21.6025 66.3838ZM33.9961 63.6289H31.5146V70H30.25V63.6289H27.8164V62.6035H33.9961V63.6289ZM41.4746 66.3838C41.4746 67.5094 41.2171 68.4163 40.7021 69.1045C40.1872 69.7926 39.4899 70.1367 38.6104 70.1367C37.7126 70.1367 37.0062 69.8519 36.4912 69.2822V72.8438H35.2266V62.6035H36.3818L36.4434 63.4238C36.9583 62.7858 37.6738 62.4668 38.5898 62.4668C39.4785 62.4668 40.1803 62.8018 40.6953 63.4717C41.2148 64.1416 41.4746 65.0736 41.4746 66.2676V66.3838ZM40.21 66.2402C40.21 65.4062 40.0322 64.7477 39.6768 64.2646C39.3213 63.7816 38.8337 63.54 38.2139 63.54C37.4482 63.54 36.874 63.8796 36.4912 64.5586V68.0928C36.8695 68.7673 37.4482 69.1045 38.2275 69.1045C38.8337 69.1045 39.3145 68.8652 39.6699 68.3867C40.0299 67.9036 40.21 67.1882 40.21 66.2402ZM46.1572 70.1367C45.1546 70.1367 44.3389 69.8086 43.71 69.1523C43.0811 68.4915 42.7666 67.6097 42.7666 66.5068V66.2744C42.7666 65.5407 42.9056 64.8867 43.1836 64.3125C43.4661 63.7337 43.8581 63.2826 44.3594 62.959C44.8652 62.6309 45.4121 62.4668 46 62.4668C46.9616 62.4668 47.709 62.7835 48.2422 63.417C48.7754 64.0505 49.042 64.9574 49.042 66.1377V66.6641H44.0312C44.0495 67.3932 44.2614 67.9834 44.667 68.4346C45.0771 68.8812 45.5967 69.1045 46.2256 69.1045C46.6722 69.1045 47.0505 69.0133 47.3604 68.8311C47.6702 68.6488 47.9414 68.4072 48.1738 68.1064L48.9463 68.708C48.3265 69.6605 47.3968 70.1367 46.1572 70.1367ZM46 63.5059C45.4896 63.5059 45.0612 63.6927 44.7148 64.0664C44.3685 64.4355 44.1543 64.9551 44.0723 65.625H47.7773V65.5293C47.7409 64.8867 47.5677 64.39 47.2578 64.0391C46.9479 63.6836 46.5286 63.5059 46 63.5059ZM55.9258 63.6289H53.4443V70H52.1797V63.6289H49.7461V62.6035H55.9258V63.6289ZM58.5371 65.1533H60.458C61.2965 65.1624 61.9596 65.3812 62.4473 65.8096C62.9349 66.238 63.1787 66.819 63.1787 67.5527C63.1787 68.291 62.9281 68.8835 62.4268 69.3301C61.9255 69.7767 61.251 70 60.4033 70H57.2725V62.6035H58.5371V65.1533ZM58.5371 66.1855V68.9678H60.417C60.891 68.9678 61.2578 68.847 61.5176 68.6055C61.7773 68.3594 61.9072 68.0244 61.9072 67.6006C61.9072 67.1904 61.7796 66.8555 61.5244 66.5957C61.2738 66.3314 60.9206 66.1947 60.4648 66.1855H58.5371Z" fill="white"/>
<defs>
<clipPath id="clip0_8_77">
<rect width="54" height="54" fill="white" transform="translate(5)"/>
</clipPath>
</defs>
</svg>
