<svg width="287" height="133" viewBox="0 0 287 133" fill="none" xmlns="http://www.w3.org/2000/svg">
<path d="M47.0615 91.9562H37.6689V57.4781C37.6689 56.8047 37.5376 56.1762 37.2748 55.5926C37.034 55.009 36.6946 54.5039 36.2568 54.0774C35.8408 53.6285 35.3481 53.2806 34.7789 53.0337C34.2097 52.7868 33.5966 52.6633 32.9398 52.6633C32.283 52.6633 31.6699 52.7868 31.1007 53.0337C30.5314 53.2806 30.0279 53.6285 29.59 54.0774C29.174 54.5039 28.8456 55.009 28.6047 55.5926C28.3639 56.1762 28.2435 56.8047 28.2435 57.4781V91.9562H18.818V57.4781C18.818 56.8047 18.6976 56.1762 18.4568 55.5926C18.216 55.009 17.8766 54.5039 17.4387 54.0774C17.0227 53.6285 16.5301 53.2806 15.9609 53.0337C15.3916 52.7868 14.7786 52.6633 14.1217 52.6633C13.4649 52.6633 12.8519 52.7868 12.2826 53.0337C11.7134 53.2806 11.2098 53.6285 10.7719 54.0774C10.3559 54.5039 10.0275 55.009 9.7867 55.5926C9.54586 56.1762 9.42544 56.8047 9.42544 57.4781V91.9562H0V57.4781C0 55.4804 0.361254 53.6061 1.08376 51.8552C1.82816 50.0819 2.8353 48.5443 4.10516 47.2424C5.39691 45.9181 6.89667 44.8855 8.60441 44.1448C10.3341 43.3816 12.1732 43 14.1217 43C15.8733 43 17.5591 43.3255 19.1793 43.9764C20.7995 44.6049 22.2554 45.5253 23.5472 46.7374C24.8389 45.5253 26.284 44.6049 27.8822 43.9764C29.5024 43.3255 31.1883 43 32.9398 43C34.8884 43 36.7165 43.3816 38.4243 44.1448C40.1539 44.8855 41.6537 45.9181 42.9235 47.2424C44.2153 48.5443 45.2224 50.0819 45.9449 51.8552C46.6893 53.6061 47.0615 55.4804 47.0615 57.4781V91.9562Z" fill="#81BECB"/>
<path d="M101.644 68.0168C101.644 70.3064 101.348 72.5174 100.757 74.6498C100.188 76.7598 99.3777 78.7464 98.3268 80.6094C97.2758 82.4501 96.006 84.1336 94.5172 85.6599C93.0284 87.1863 91.3863 88.4994 89.591 89.5993C87.7957 90.6768 85.858 91.5073 83.7781 92.0909C81.6981 92.697 79.5415 93 77.3083 93C75.0751 93 72.9186 92.697 70.8386 92.0909C68.7806 91.5073 66.8429 90.6768 65.0257 89.5993C63.2304 88.4994 61.5883 87.1863 60.0995 85.6599C58.6107 84.1336 57.3299 82.4501 56.2571 80.6094C55.2062 78.7464 54.3851 76.7598 53.794 74.6498C53.2247 72.5174 52.9401 70.3064 52.9401 68.0168C52.9401 65.7273 53.2247 63.5163 53.794 61.3838C54.3851 59.2514 55.2062 57.2649 56.2571 55.4242C57.3299 53.5836 58.6107 51.9001 60.0995 50.3737C61.5883 48.8474 63.2304 47.5455 65.0257 46.468C66.8429 45.3906 68.7806 44.56 70.8386 43.9764C72.9186 43.3704 75.0751 43.0673 77.3083 43.0673C79.5415 43.0673 81.6981 43.3704 83.7781 43.9764C85.858 44.56 87.7957 45.3906 89.591 46.468C91.3863 47.5455 93.0284 48.8474 94.5172 50.3737C96.006 51.9001 97.2758 53.5836 98.3268 55.4242C99.3777 57.2649 100.188 59.2514 100.757 61.3838C101.348 63.5163 101.644 65.7273 101.644 68.0168ZM92.284 68.0168C92.284 65.9068 91.8899 63.9203 91.1017 62.0572C90.3135 60.1717 89.2407 58.5443 87.8832 57.1751C86.5477 55.7834 84.9604 54.6835 83.1212 53.8754C81.304 53.0673 79.3664 52.6633 77.3083 52.6633C75.2284 52.6633 73.2798 53.0673 71.4626 53.8754C69.6454 54.6835 68.058 55.7834 66.7006 57.1751C65.3432 58.5443 64.2704 60.1717 63.4822 62.0572C62.694 63.9203 62.2999 65.9068 62.2999 68.0168C62.2999 70.1268 62.694 72.1134 63.4822 73.9764C64.2704 75.8171 65.3432 77.4332 66.7006 78.8249C68.058 80.2166 69.6454 81.3165 71.4626 82.1246C73.2798 82.9327 75.2284 83.3367 77.3083 83.3367C79.3664 83.3367 81.304 82.9327 83.1212 82.1246C84.9604 81.3165 86.5477 80.2166 87.8832 78.8249C89.2407 77.4332 90.3135 75.8171 91.1017 73.9764C91.8899 72.1134 92.284 70.1268 92.284 68.0168Z" fill="#81BECB"/>
<path d="M142.991 43.6734L127.523 91.9562H118.097L102.695 43.6734H113.401L122.794 75.8956L132.219 43.6734H142.991Z" fill="#81BECB"/>
<path d="M156.948 91.9562H147.523V43.6734H156.948V91.9562Z" fill="#81BECB"/>
<path d="M198 91.9562H165.717V43.6734H198V53.3367H175.142V63H190.611V72.6633H175.142V82.2929H198V91.9562Z" fill="#81BECB"/>
<path d="M243.057 67.2961C243.057 69.4392 242.773 71.5065 242.204 73.498C241.656 75.4679 240.868 77.3187 239.839 79.0505C238.81 80.7606 237.584 82.33 236.161 83.7587C234.738 85.1658 233.15 86.378 231.399 87.3955C229.647 88.4129 227.764 89.203 225.75 89.7658C223.757 90.307 221.677 90.5776 219.51 90.5776H205.322V44.0146H219.51C221.677 44.0146 223.757 44.296 225.75 44.8588C227.764 45.4 229.647 46.1793 231.399 47.1967C233.15 48.2141 234.738 49.4372 236.161 50.8659C237.584 52.273 238.81 53.8424 239.839 55.5742C240.868 57.2843 241.656 59.1351 242.204 61.1267C242.773 63.0965 243.057 65.153 243.057 67.2961ZM233.632 67.2961C233.632 65.3695 233.26 63.562 232.515 61.8735C231.793 60.185 230.786 58.713 229.494 57.4575C228.224 56.1803 226.724 55.1737 224.994 54.4377C223.287 53.7017 221.458 53.3337 219.51 53.3337H214.813V81.2585H219.51C221.458 81.2585 223.287 80.9013 224.994 80.187C226.724 79.451 228.224 78.4552 229.494 77.1997C230.786 75.9225 231.793 74.4396 232.515 72.7512C233.26 71.041 233.632 69.2227 233.632 67.2961Z" fill="white"/>
<path d="M287 76.6152C287 78.5418 286.628 80.3493 285.883 82.0378C285.139 83.7263 284.121 85.2091 282.829 86.4863C281.559 87.7418 280.07 88.7376 278.363 89.4736C276.655 90.2096 274.827 90.5776 272.878 90.5776H249.33V44.0146H272.878C274.827 44.0146 276.655 44.3826 278.363 45.1186C280.07 45.8546 281.559 46.8612 282.829 48.1384C284.121 49.3939 285.139 50.8659 285.883 52.5544C286.628 54.2429 287 56.0504 287 57.977C287 58.8429 286.88 59.7304 286.639 60.6396C286.398 61.5488 286.059 62.4255 285.621 63.2697C285.183 64.114 284.657 64.8824 284.044 65.5751C283.431 66.2679 282.752 66.8415 282.008 67.2961C282.774 67.7074 283.464 68.2702 284.077 68.9846C284.69 69.6773 285.216 70.4457 285.653 71.29C286.091 72.1342 286.42 73.0218 286.639 73.9526C286.88 74.8618 287 75.7493 287 76.6152ZM258.756 81.2585H272.878C273.535 81.2585 274.148 81.1394 274.717 80.9013C275.286 80.6632 275.779 80.3385 276.195 79.9272C276.633 79.4942 276.972 78.9964 277.213 78.4335C277.454 77.8707 277.574 77.2646 277.574 76.6152C277.574 75.9658 277.454 75.3596 277.213 74.7968C276.972 74.234 276.633 73.7469 276.195 73.3356C275.779 72.9027 275.286 72.5672 274.717 72.329C274.148 72.0909 273.535 71.9719 272.878 71.9719H258.756V81.2585ZM258.756 62.6528H272.878C273.535 62.6528 274.148 62.5337 274.717 62.2956C275.286 62.0575 275.779 61.7328 276.195 61.3215C276.633 60.8885 276.972 60.3907 277.213 59.8278C277.454 59.2434 277.574 58.6264 277.574 57.977C277.574 57.3276 277.454 56.7215 277.213 56.1586C276.972 55.5958 276.633 55.1088 276.195 54.6975C275.779 54.2645 275.286 53.929 274.717 53.6909C274.148 53.4527 273.535 53.3337 272.878 53.3337H258.756V62.6528Z" fill="white"/>
<path fill-rule="evenodd" clip-rule="evenodd" d="M0 110.069H286.436V121.534C286.436 127.867 278.908 133 269.621 133H16.8151C7.52836 133 0 127.867 0 121.534V110.069ZM33.6301 115.604H57.983C61.1853 115.604 63.7813 117.374 63.7813 119.558V123.511C63.7813 125.695 61.1853 127.465 57.983 127.465H33.6301C30.4278 127.465 27.8318 125.695 27.8318 123.511V119.558C27.8318 117.374 30.4278 115.604 33.6301 115.604ZM122.924 115.604H98.5711C95.3688 115.604 92.7728 117.374 92.7728 119.558V123.511C92.7728 125.695 95.3688 127.465 98.5711 127.465H122.924C126.126 127.465 128.722 125.695 128.722 123.511V119.558C128.722 117.374 126.126 115.604 122.924 115.604ZM163.512 115.604H187.865C191.067 115.604 193.663 117.374 193.663 119.558V123.511C193.663 125.695 191.067 127.465 187.865 127.465H163.512C160.31 127.465 157.714 125.695 157.714 123.511V119.558C157.714 117.374 160.31 115.604 163.512 115.604ZM252.806 115.604H228.453C225.251 115.604 222.655 117.374 222.655 119.558V123.511C222.655 125.695 225.251 127.465 228.453 127.465H252.806C256.008 127.465 258.604 125.695 258.604 123.511V119.558C258.604 117.374 256.008 115.604 252.806 115.604Z" fill="white"/>
<path fill-rule="evenodd" clip-rule="evenodd" d="M0 22.931H286.436V11.4655C286.436 5.13329 278.908 0 269.621 0H16.8151C7.52836 0 0 5.13329 0 11.4655V22.931ZM33.6301 17.396H57.983C61.1853 17.396 63.7813 15.6259 63.7813 13.4423V9.4887C63.7813 7.30518 61.1853 5.53508 57.983 5.53508H33.6301C30.4278 5.53508 27.8318 7.30518 27.8318 9.4887V13.4423C27.8318 15.6259 30.4278 17.396 33.6301 17.396ZM122.924 17.396H98.5711C95.3688 17.396 92.7728 15.6259 92.7728 13.4423V9.4887C92.7728 7.30518 95.3688 5.53508 98.5711 5.53508H122.924C126.126 5.53508 128.722 7.30518 128.722 9.4887V13.4423C128.722 15.6259 126.126 17.396 122.924 17.396ZM163.512 17.396H187.865C191.067 17.396 193.663 15.6259 193.663 13.4423V9.4887C193.663 7.30518 191.067 5.53508 187.865 5.53508H163.512C160.31 5.53508 157.714 7.30518 157.714 9.4887V13.4423C157.714 15.6259 160.31 17.396 163.512 17.396ZM252.806 17.396H228.453C225.251 17.396 222.655 15.6259 222.655 13.4423V9.4887C222.655 7.30518 225.251 5.53508 228.453 5.53508H252.806C256.008 5.53508 258.604 7.30518 258.604 9.4887V13.4423C258.604 15.6259 256.008 17.396 252.806 17.396Z" fill="white"/>
</svg>
