<svg width="97" height="98" viewBox="0 0 97 98" fill="none" xmlns="http://www.w3.org/2000/svg">
<rect x="1" y="1.41992" width="95" height="95" rx="16" fill="#1E2329"/>
<circle cx="48.5" cy="48.9199" r="35.5" fill="url(#paint0_linear_0_96)"/>
<g clip-path="url(#clip0_0_96)">
<path d="M62.1667 32.4199H33.8333C33.0822 32.4209 32.3621 32.7252 31.8309 33.266C31.2998 33.8069 31.001 34.5401 31 35.305V45.8831C31 62.0144 44.4265 67.3634 47.1201 68.272C47.6907 68.4692 48.3093 68.4692 48.8799 68.272C51.5721 67.3634 65 62.0159 65 45.8831V35.305C64.999 34.5401 64.7002 33.8069 64.1691 33.266C63.6379 32.7252 62.9178 32.4209 62.1667 32.4199ZM56.7698 45.0041L46.38 55.1018C46.1163 55.3577 45.7661 55.5005 45.4019 55.5005C45.0376 55.5005 44.6874 55.3577 44.4237 55.1018L39.2302 50.0529C39.0954 49.9222 38.9872 49.7657 38.9118 49.5923C38.8365 49.419 38.7954 49.2322 38.7909 49.0427C38.7865 48.8532 38.8187 48.6646 38.8859 48.4878C38.953 48.311 39.0537 48.1494 39.1823 48.0122C39.3108 47.8751 39.4646 47.765 39.6349 47.6884C39.8052 47.6118 39.9887 47.5702 40.1748 47.5658C40.3609 47.5614 40.5461 47.5945 40.7197 47.663C40.8932 47.7315 41.0519 47.8342 41.1864 47.9652L45.4019 52.0632L54.8136 42.9163C54.9481 42.7853 55.1068 42.6827 55.2803 42.6141C55.4539 42.5456 55.6391 42.5125 55.8252 42.5169C56.0113 42.5213 56.1948 42.563 56.3651 42.6396C56.5354 42.7162 56.6892 42.8262 56.8177 42.9633C56.9463 43.1005 57.047 43.2621 57.1141 43.4389C57.1813 43.6157 57.2135 43.8043 57.2091 43.9938C57.2046 44.1834 57.1635 44.3701 57.0882 44.5435C57.0128 44.7168 56.9046 44.8733 56.7698 45.0041H56.7698Z" fill="white" fill-opacity="0.36"/>
</g>
<g clip-path="url(#clip1_0_96)">
<path d="M62.1667 32.4199H33.8333C33.0822 32.4209 32.3621 32.7252 31.8309 33.266C31.2998 33.8069 31.001 34.5401 31 35.305V45.8831C31 62.0144 44.4265 67.3634 47.1201 68.272C47.6907 68.4692 48.3093 68.4692 48.8799 68.272C51.5721 67.3634 65 62.0159 65 45.8831V35.305C64.999 34.5401 64.7002 33.8069 64.1691 33.266C63.6379 32.7252 62.9178 32.4209 62.1667 32.4199ZM56.7698 45.0041L46.38 55.1018C46.1163 55.3577 45.7661 55.5005 45.4019 55.5005C45.0376 55.5005 44.6874 55.3577 44.4237 55.1018L39.2302 50.0529C39.0954 49.9222 38.9872 49.7657 38.9118 49.5923C38.8365 49.419 38.7954 49.2322 38.7909 49.0427C38.7865 48.8532 38.8187 48.6646 38.8859 48.4878C38.953 48.311 39.0537 48.1494 39.1823 48.0122C39.3108 47.8751 39.4646 47.765 39.6349 47.6884C39.8052 47.6118 39.9887 47.5702 40.1748 47.5658C40.3609 47.5614 40.5461 47.5945 40.7197 47.663C40.8932 47.7315 41.0519 47.8342 41.1864 47.9652L45.4019 52.0632L54.8136 42.9163C54.9481 42.7853 55.1068 42.6827 55.2803 42.6141C55.4539 42.5456 55.6391 42.5125 55.8252 42.5169C56.0113 42.5213 56.1948 42.563 56.3651 42.6396C56.5354 42.7162 56.6892 42.8262 56.8177 42.9633C56.9463 43.1005 57.047 43.2621 57.1141 43.4389C57.1813 43.6157 57.2135 43.8043 57.2091 43.9938C57.2046 44.1834 57.1635 44.3701 57.0882 44.5435C57.0128 44.7168 56.9046 44.8733 56.7698 45.0041H56.7698Z" fill="white" fill-opacity="0.88"/>
</g>
<rect x="1" y="1.41992" width="95" height="95" rx="16" stroke="#448FFF" stroke-opacity="0.04" stroke-width="2"/>
<defs>
<linearGradient id="paint0_linear_0_96" x1="75.5" y1="13.4199" x2="8.5" y2="86.9199" gradientUnits="userSpaceOnUse">
<stop stop-color="#3491FF"/>
<stop offset="1" stop-color="#4A93FF" stop-opacity="0.48"/>
</linearGradient>
<clipPath id="clip0_0_96">
<rect width="17" height="36" fill="white" transform="translate(31 32.4199)"/>
</clipPath>
<clipPath id="clip1_0_96">
<rect width="17" height="36" fill="white" transform="translate(48 32.4199)"/>
</clipPath>
</defs>
</svg>
