<svg width="1440" height="822" viewBox="0 0 1440 822" fill="none" xmlns="http://www.w3.org/2000/svg">
<path d="M-174.594 455.745C-174.594 455.745 -1.58762 242.256 213.91 266.871C307.375 277.547 445.098 400.033 560.92 413.262C798.54 440.404 990.058 139.458 1261.01 170.407C1441.69 191.045 1699.83 421.974 1699.83 421.974" stroke="#2196F3" stroke-opacity="0.16" stroke-width="2"/>
<path d="M-211.67 490.172C-211.67 490.172 -36.8904 291.035 183.555 316.215C279.166 327.137 421.058 443.622 539.539 457.155C782.615 484.92 975.487 203.713 1252.66 235.372C1437.49 256.485 1703.45 476.087 1703.45 476.087" stroke="#2196F3" stroke-opacity="0.16" stroke-width="2"/>
<path d="M-235.665 525.529C-235.665 525.529 -61.4539 328.807 158.568 353.939C253.995 364.839 395.72 480.17 513.972 493.678C756.581 521.389 948.76 243.536 1225.4 275.134C1409.88 296.206 1675.52 513.631 1675.52 513.631" stroke="#2196F3" stroke-opacity="0.16" stroke-width="2"/>
<path d="M-293.22 597.918C-293.22 597.918 -116.538 382.102 103.903 407.282C199.512 418.203 340.529 542.321 459.007 555.854C702.079 583.619 897.584 279.327 1174.75 310.986C1359.58 332.098 1623.89 566.104 1623.89 566.104" stroke="#2196F3" stroke-opacity="0.16" stroke-width="2"/>
</svg>
