<svg width="104" height="104" viewBox="0 0 104 104" fill="none" xmlns="http://www.w3.org/2000/svg">
<circle cx="52" cy="52" r="52" fill="#2196F3"/>
<g clip-path="url(#clip0_49_419)">
<path d="M45.4692 51.0313C44.3128 48.1471 44.1878 44.9521 45.1152 41.9864C46.0427 39.0207 47.9656 36.4661 50.5591 34.7545C53.1525 33.043 56.2574 32.2793 59.3489 32.5927C62.4404 32.9061 65.3289 34.2773 67.5261 36.4745C69.7233 38.6718 71.0945 41.5602 71.4079 44.6517C71.7213 47.7432 70.9576 50.8481 69.246 53.4416C67.5345 56.035 64.9799 57.958 62.0142 58.8854C59.0485 59.8128 55.8535 59.6878 52.9693 58.5314L52.9694 58.5312L50.5005 61.0001H46.0005V65.5001H41.5005V70.0001H34.0005V62.5001L45.4695 51.0311L45.4692 51.0313Z" stroke="white" stroke-width="3.5" stroke-linecap="round" stroke-linejoin="round"/>
<path opacity="0.5" d="M61.75 43C62.1642 43 62.5 42.6642 62.5 42.25C62.5 41.8358 62.1642 41.5 61.75 41.5C61.3358 41.5 61 41.8358 61 42.25C61 42.6642 61.3358 43 61.75 43Z" stroke="white" stroke-width="3.5" stroke-linecap="round" stroke-linejoin="round"/>
<path d="M61.75 44.5C62.9926 44.5 64 43.4926 64 42.25C64 41.0074 62.9926 40 61.75 40C60.5074 40 59.5 41.0074 59.5 42.25C59.5 43.4926 60.5074 44.5 61.75 44.5Z" fill="white"/>
</g>
<defs>
<clipPath id="clip0_49_419">
<rect width="48" height="48" fill="white" transform="translate(28 28)"/>
</clipPath>
</defs>
</svg>
