<svg width="104" height="104" viewBox="0 0 104 104" fill="none" xmlns="http://www.w3.org/2000/svg">
<circle cx="52" cy="52" r="52" fill="#2196F3"/>
<path d="M46.4314 47.768V49.96H43.4554V59H40.7194V49.96H37.7434V47.768H46.4314ZM56.3645 51.384C56.3645 52.0347 56.2152 52.632 55.9165 53.176C55.6178 53.7093 55.1592 54.1413 54.5405 54.472C53.9218 54.8027 53.1538 54.968 52.2365 54.968H50.5405V59H47.8045V47.768H52.2365C53.1325 47.768 53.8898 47.9227 54.5085 48.232C55.1272 48.5413 55.5912 48.968 55.9005 49.512C56.2098 50.056 56.3645 50.68 56.3645 51.384ZM52.0285 52.792C52.5512 52.792 52.9405 52.6693 53.1965 52.424C53.4525 52.1787 53.5805 51.832 53.5805 51.384C53.5805 50.936 53.4525 50.5893 53.1965 50.344C52.9405 50.0987 52.5512 49.976 52.0285 49.976H50.5405V52.792H52.0285ZM61.8529 59.112C61.0315 59.112 60.2955 58.9787 59.6449 58.712C58.9942 58.4453 58.4715 58.0507 58.0769 57.528C57.6929 57.0053 57.4902 56.376 57.4689 55.64H60.3809C60.4235 56.056 60.5675 56.376 60.8129 56.6C61.0582 56.8133 61.3782 56.92 61.7729 56.92C62.1782 56.92 62.4982 56.8293 62.7329 56.648C62.9675 56.456 63.0849 56.1947 63.0849 55.864C63.0849 55.5867 62.9889 55.3573 62.7969 55.176C62.6155 54.9947 62.3862 54.8453 62.1089 54.728C61.8422 54.6107 61.4582 54.4773 60.9569 54.328C60.2315 54.104 59.6395 53.88 59.1809 53.656C58.7222 53.432 58.3275 53.1013 57.9969 52.664C57.6662 52.2267 57.5009 51.656 57.5009 50.952C57.5009 49.9067 57.8795 49.0907 58.6369 48.504C59.3942 47.9067 60.3809 47.608 61.5969 47.608C62.8342 47.608 63.8315 47.9067 64.5889 48.504C65.3462 49.0907 65.7515 49.912 65.8049 50.968H62.8449C62.8235 50.6053 62.6902 50.3227 62.4449 50.12C62.1995 49.9067 61.8849 49.8 61.5009 49.8C61.1702 49.8 60.9035 49.8907 60.7009 50.072C60.4982 50.2427 60.3969 50.4933 60.3969 50.824C60.3969 51.1867 60.5675 51.4693 60.9089 51.672C61.2502 51.8747 61.7835 52.0933 62.5089 52.328C63.2342 52.5733 63.8209 52.808 64.2689 53.032C64.7275 53.256 65.1222 53.5813 65.4529 54.008C65.7835 54.4347 65.9489 54.984 65.9489 55.656C65.9489 56.296 65.7835 56.8773 65.4529 57.4C65.1329 57.9227 64.6635 58.3387 64.0449 58.648C63.4262 58.9573 62.6955 59.112 61.8529 59.112Z" fill="white"/>
<rect x="30" y="30" width="44" height="44" rx="2" stroke="white" stroke-width="3.5"/>
</svg>
