<svg width="157" height="157" viewBox="0 0 157 157" fill="none" xmlns="http://www.w3.org/2000/svg">
<path d="M84.7891 60.3848C84.7891 61.3509 84.5475 62.2077 84.0645 62.9551C83.5814 63.7025 82.916 64.2995 82.0684 64.7461C83.0345 65.2109 83.8001 65.8535 84.3652 66.6738C84.9303 67.485 85.2129 68.4421 85.2129 69.5449C85.2129 71.3132 84.6113 72.7122 83.4082 73.7422C82.2051 74.763 80.569 75.2734 78.5 75.2734C76.431 75.2734 74.7904 74.7585 73.5781 73.7285C72.3659 72.6986 71.7598 71.304 71.7598 69.5449C71.7598 68.4421 72.0423 67.4805 72.6074 66.6602C73.1725 65.8398 73.9336 65.2018 74.8906 64.7461C74.043 64.2995 73.3776 63.7025 72.8945 62.9551C72.4206 62.2077 72.1836 61.3509 72.1836 60.3848C72.1836 58.6895 72.7487 57.3405 73.8789 56.3379C75.0091 55.3262 76.5449 54.8203 78.4863 54.8203C80.4186 54.8203 81.9499 55.3216 83.0801 56.3242C84.2194 57.3177 84.7891 58.6712 84.7891 60.3848ZM81.248 69.2578C81.248 68.3919 80.9974 67.6992 80.4961 67.1797C79.9948 66.6602 79.3203 66.4004 78.4727 66.4004C77.6341 66.4004 76.9642 66.6602 76.4629 67.1797C75.9616 67.6901 75.7109 68.3828 75.7109 69.2578C75.7109 70.1055 75.957 70.7891 76.4492 71.3086C76.9414 71.8281 77.625 72.0879 78.5 72.0879C79.3568 72.0879 80.0267 71.8372 80.5098 71.3359C81.002 70.8346 81.248 70.1419 81.248 69.2578ZM80.8379 60.5762C80.8379 59.8014 80.6328 59.1816 80.2227 58.7168C79.8125 58.2428 79.2337 58.0059 78.4863 58.0059C77.748 58.0059 77.1738 58.2337 76.7637 58.6895C76.3535 59.1452 76.1484 59.7741 76.1484 60.5762C76.1484 61.3691 76.3535 62.0072 76.7637 62.4902C77.1738 62.9733 77.7526 63.2148 78.5 63.2148C79.2474 63.2148 79.8216 62.9733 80.2227 62.4902C80.6328 62.0072 80.8379 61.3691 80.8379 60.5762Z" fill="white"/>
<path d="M62.2422 100H60.2734V88.625H62.2422V100ZM67.2344 88.625L70.5156 97.3438L73.7891 88.625H76.3438V100H74.375V96.25L74.5703 91.2344L71.2109 100H69.7969L66.4453 91.2422L66.6406 96.25V100H64.6719V88.625H67.2344ZM78.6875 100V88.625H82.0469C83.0521 88.625 83.9427 88.849 84.7188 89.2969C85.5 89.7448 86.1042 90.3802 86.5312 91.2031C86.9583 92.026 87.1719 92.9688 87.1719 94.0312V94.6016C87.1719 95.6797 86.9557 96.6276 86.5234 97.4453C86.0964 98.263 85.4844 98.8932 84.6875 99.3359C83.8958 99.7786 82.987 100 81.9609 100H78.6875ZM80.6641 90.2188V98.4219H81.9531C82.9896 98.4219 83.7839 98.099 84.3359 97.4531C84.8932 96.8021 85.1771 95.8698 85.1875 94.6562V94.0234C85.1875 92.7891 84.9193 91.8464 84.3828 91.1953C83.8464 90.5443 83.0677 90.2188 82.0469 90.2188H80.6641ZM96.375 95.8594C96.375 97.1719 96.0807 98.2161 95.4922 98.9922C94.9089 99.7682 94.1042 100.156 93.0781 100.156C92.0885 100.156 91.3177 99.7995 90.7656 99.0859L90.6719 100H88.9531V88H90.8516V92.3594C91.3984 91.7135 92.1354 91.3906 93.0625 91.3906C94.0938 91.3906 94.9036 91.7734 95.4922 92.5391C96.0807 93.3047 96.375 94.375 96.375 95.75V95.8594ZM94.4766 95.6953C94.4766 94.7786 94.3151 94.0911 93.9922 93.6328C93.6693 93.1745 93.2005 92.9453 92.5859 92.9453C91.763 92.9453 91.1849 93.3047 90.8516 94.0234V97.5078C91.1901 98.2422 91.7734 98.6094 92.6016 98.6094C93.1953 98.6094 93.6536 98.388 93.9766 97.9453C94.2995 97.5026 94.4661 96.8333 94.4766 95.9375V95.6953Z" fill="white"/>
<g filter="url(#filter0_dd_16_844)">
<circle cx="78.5" cy="78.5" r="58.5" stroke="#E3AC3C" stroke-width="4"/>
</g>
<defs>
<filter id="filter0_dd_16_844" x="0" y="0" width="157" height="157" filterUnits="userSpaceOnUse" color-interpolation-filters="sRGB">
<feFlood flood-opacity="0" result="BackgroundImageFix"/>
<feColorMatrix in="SourceAlpha" type="matrix" values="0 0 0 0 0 0 0 0 0 0 0 0 0 0 0 0 0 0 127 0" result="hardAlpha"/>
<feOffset dx="6" dy="6"/>
<feGaussianBlur stdDeviation="6"/>
<feColorMatrix type="matrix" values="0 0 0 0 0 0 0 0 0 0 0 0 0 0 0 0 0 0 1 0"/>
<feBlend mode="normal" in2="BackgroundImageFix" result="effect1_dropShadow_16_844"/>
<feColorMatrix in="SourceAlpha" type="matrix" values="0 0 0 0 0 0 0 0 0 0 0 0 0 0 0 0 0 0 127 0" result="hardAlpha"/>
<feOffset dx="-6" dy="-6"/>
<feGaussianBlur stdDeviation="6"/>
<feColorMatrix type="matrix" values="0 0 0 0 0.325 0 0 0 0 0.325 0 0 0 0 0.325 0 0 0 1 0"/>
<feBlend mode="normal" in2="effect1_dropShadow_16_844" result="effect2_dropShadow_16_844"/>
<feBlend mode="normal" in="SourceGraphic" in2="effect2_dropShadow_16_844" result="shape"/>
</filter>
</defs>
</svg>
