<svg width="157" height="157" viewBox="0 0 157 157" fill="none" xmlns="http://www.w3.org/2000/svg">
<g filter="url(#filter0_dd_16_840)">
<circle cx="78.5" cy="78.5" r="58.5" stroke="black" stroke-width="4"/>
<circle cx="78.5" cy="78.5" r="58.5" stroke="url(#paint0_linear_16_840)" stroke-width="4"/>
</g>
<path d="M72.6758 60.3848C72.6758 61.3509 72.4342 62.2077 71.9512 62.9551C71.4681 63.7025 70.8027 64.2995 69.9551 64.7461C70.9212 65.2109 71.6868 65.8535 72.252 66.6738C72.8171 67.485 73.0996 68.4421 73.0996 69.5449C73.0996 71.3132 72.498 72.7122 71.2949 73.7422C70.0918 74.763 68.4557 75.2734 66.3867 75.2734C64.3177 75.2734 62.6771 74.7585 61.4648 73.7285C60.2526 72.6986 59.6465 71.304 59.6465 69.5449C59.6465 68.4421 59.929 67.4805 60.4941 66.6602C61.0592 65.8398 61.8203 65.2018 62.7773 64.7461C61.9297 64.2995 61.2643 63.7025 60.7812 62.9551C60.3073 62.2077 60.0703 61.3509 60.0703 60.3848C60.0703 58.6895 60.6354 57.3405 61.7656 56.3379C62.8958 55.3262 64.4316 54.8203 66.373 54.8203C68.3053 54.8203 69.8366 55.3216 70.9668 56.3242C72.1061 57.3177 72.6758 58.6712 72.6758 60.3848ZM69.1348 69.2578C69.1348 68.3919 68.8841 67.6992 68.3828 67.1797C67.8815 66.6602 67.207 66.4004 66.3594 66.4004C65.5208 66.4004 64.8509 66.6602 64.3496 67.1797C63.8483 67.6901 63.5977 68.3828 63.5977 69.2578C63.5977 70.1055 63.8438 70.7891 64.3359 71.3086C64.8281 71.8281 65.5117 72.0879 66.3867 72.0879C67.2435 72.0879 67.9134 71.8372 68.3965 71.3359C68.8887 70.8346 69.1348 70.1419 69.1348 69.2578ZM68.7246 60.5762C68.7246 59.8014 68.5195 59.1816 68.1094 58.7168C67.6992 58.2428 67.1204 58.0059 66.373 58.0059C65.6348 58.0059 65.0605 58.2337 64.6504 58.6895C64.2402 59.1452 64.0352 59.7741 64.0352 60.5762C64.0352 61.3691 64.2402 62.0072 64.6504 62.4902C65.0605 62.9733 65.6393 63.2148 66.3867 63.2148C67.1341 63.2148 67.7083 62.9733 68.1094 62.4902C68.5195 62.0072 68.7246 61.3691 68.7246 60.5762ZM76.1484 73.0586C76.1484 72.4297 76.3581 71.9193 76.7773 71.5273C77.2057 71.1354 77.7389 70.9395 78.377 70.9395C79.0241 70.9395 79.5573 71.1354 79.9766 71.5273C80.4049 71.9193 80.6191 72.4297 80.6191 73.0586C80.6191 73.6784 80.4095 74.1842 79.9902 74.5762C79.571 74.959 79.0332 75.1504 78.377 75.1504C77.7298 75.1504 77.1966 74.959 76.7773 74.5762C76.3581 74.1842 76.1484 73.6784 76.1484 73.0586ZM93.1699 67.043C92.14 68.0547 90.9368 68.5605 89.5605 68.5605C87.8014 68.5605 86.3932 67.959 85.3359 66.7559C84.2786 65.5436 83.75 63.9121 83.75 61.8613C83.75 60.5579 84.0326 59.3639 84.5977 58.2793C85.1719 57.1855 85.9694 56.3379 86.9902 55.7363C88.0111 55.1257 89.1595 54.8203 90.4355 54.8203C91.748 54.8203 92.9147 55.1484 93.9355 55.8047C94.9564 56.4609 95.7493 57.4043 96.3145 58.6348C96.8796 59.8652 97.1667 61.2734 97.1758 62.8594V64.3223C97.1758 67.64 96.3509 70.2467 94.7012 72.1426C93.0514 74.0384 90.7135 75.0501 87.6875 75.1777L86.7168 75.1914V71.8965L87.5918 71.8828C91.028 71.7279 92.8874 70.1146 93.1699 67.043ZM90.5312 65.5391C91.1693 65.5391 91.7161 65.375 92.1719 65.0469C92.6367 64.7188 92.9876 64.3223 93.2246 63.8574V62.2305C93.2246 60.8906 92.9694 59.8516 92.459 59.1133C91.9486 58.375 91.265 58.0059 90.4082 58.0059C89.6152 58.0059 88.9635 58.3704 88.4531 59.0996C87.9427 59.8197 87.6875 60.7266 87.6875 61.8203C87.6875 62.9049 87.9336 63.7982 88.4258 64.5C88.9271 65.1927 89.6289 65.5391 90.5312 65.5391Z" fill="white"/>
<path d="M41.7656 95.125H40.4219V100H38.4531V88.625H40.4219V93.4062H41.5078L44.8516 88.625H47.2734L43.3672 94.0703L47.6172 100H45.2422L41.7656 95.125ZM53.8047 91.5469H55.6953V100H53.8047V94.3594L50.4922 100H48.6016V91.5469H50.4922V97.1875L53.8047 91.5469ZM64.875 100H62.9766V96.5859H59.6875V100H57.7891V91.5469H59.6875V95.0703H62.9766V91.5469H64.875V100ZM66.5469 95.6953C66.5469 94.8672 66.7109 94.1224 67.0391 93.4609C67.3672 92.7943 67.8281 92.2839 68.4219 91.9297C69.0156 91.5703 69.6979 91.3906 70.4688 91.3906C71.6094 91.3906 72.5339 91.7578 73.2422 92.4922C73.9557 93.2266 74.3411 94.2005 74.3984 95.4141L74.4062 95.8594C74.4062 96.6927 74.2448 97.4375 73.9219 98.0938C73.6042 98.75 73.1458 99.2578 72.5469 99.6172C71.9531 99.9766 71.2656 100.156 70.4844 100.156C69.2917 100.156 68.3359 99.7604 67.6172 98.9688C66.9036 98.1719 66.5469 97.112 66.5469 95.7891V95.6953ZM68.4453 95.8594C68.4453 96.7292 68.625 97.4115 68.9844 97.9062C69.3438 98.3958 69.8438 98.6406 70.4844 98.6406C71.125 98.6406 71.6224 98.3906 71.9766 97.8906C72.3359 97.3906 72.5156 96.6589 72.5156 95.6953C72.5156 94.8411 72.3307 94.1641 71.9609 93.6641C71.5964 93.1641 71.099 92.9141 70.4688 92.9141C69.849 92.9141 69.3568 93.1615 68.9922 93.6562C68.6276 94.1458 68.4453 94.8802 68.4453 95.8594ZM83.1797 100H81.2812V93.0781H77.9844V100H76.0859V91.5469H83.1797V100ZM84.8438 95.6953C84.8438 94.8672 85.0078 94.1224 85.3359 93.4609C85.6641 92.7943 86.125 92.2839 86.7188 91.9297C87.3125 91.5703 87.9948 91.3906 88.7656 91.3906C89.9062 91.3906 90.8307 91.7578 91.5391 92.4922C92.2526 93.2266 92.638 94.2005 92.6953 95.4141L92.7031 95.8594C92.7031 96.6927 92.5417 97.4375 92.2188 98.0938C91.901 98.75 91.4427 99.2578 90.8438 99.6172C90.25 99.9766 89.5625 100.156 88.7812 100.156C87.5885 100.156 86.6328 99.7604 85.9141 98.9688C85.2005 98.1719 84.8438 97.112 84.8438 95.7891V95.6953ZM86.7422 95.8594C86.7422 96.7292 86.9219 97.4115 87.2812 97.9062C87.6406 98.3958 88.1406 98.6406 88.7812 98.6406C89.4219 98.6406 89.9193 98.3906 90.2734 97.8906C90.6328 97.3906 90.8125 96.6589 90.8125 95.6953C90.8125 94.8411 90.6276 94.1641 90.2578 93.6641C89.8932 93.1641 89.3958 92.9141 88.7656 92.9141C88.1458 92.9141 87.6536 93.1615 87.2891 93.6562C86.9245 94.1458 86.7422 94.8802 86.7422 95.8594ZM99.5859 91.5469H101.477V100H99.5859V94.3594L96.2734 100H94.3828V91.5469H96.2734V97.1875L99.5859 91.5469ZM106.969 98.6406C107.443 98.6406 107.836 98.5026 108.148 98.2266C108.461 97.9505 108.628 97.6094 108.648 97.2031H110.438C110.417 97.7292 110.253 98.2214 109.945 98.6797C109.638 99.1328 109.221 99.4922 108.695 99.7578C108.169 100.023 107.602 100.156 106.992 100.156C105.81 100.156 104.872 99.7734 104.18 99.0078C103.487 98.2422 103.141 97.1849 103.141 95.8359V95.6406C103.141 94.3542 103.484 93.3255 104.172 92.5547C104.859 91.7786 105.797 91.3906 106.984 91.3906C107.99 91.3906 108.807 91.6849 109.438 92.2734C110.073 92.8568 110.406 93.625 110.438 94.5781H108.648C108.628 94.0938 108.461 93.6953 108.148 93.3828C107.841 93.0703 107.448 92.9141 106.969 92.9141C106.354 92.9141 105.88 93.138 105.547 93.5859C105.214 94.0286 105.044 94.7031 105.039 95.6094V95.9141C105.039 96.8307 105.203 97.5156 105.531 97.9688C105.865 98.4167 106.344 98.6406 106.969 98.6406ZM114.875 96.6562H113.914V100H112.016V91.5469H113.914V94.9219H114.75L117.086 91.5469H119.43L116.375 95.5938L119.688 100H117.219L114.875 96.6562Z" fill="white"/>
<defs>
<filter id="filter0_dd_16_840" x="0" y="0" width="157" height="157" filterUnits="userSpaceOnUse" color-interpolation-filters="sRGB">
<feFlood flood-opacity="0" result="BackgroundImageFix"/>
<feColorMatrix in="SourceAlpha" type="matrix" values="0 0 0 0 0 0 0 0 0 0 0 0 0 0 0 0 0 0 127 0" result="hardAlpha"/>
<feOffset dx="6" dy="6"/>
<feGaussianBlur stdDeviation="6"/>
<feColorMatrix type="matrix" values="0 0 0 0 0 0 0 0 0 0 0 0 0 0 0 0 0 0 1 0"/>
<feBlend mode="normal" in2="BackgroundImageFix" result="effect1_dropShadow_16_840"/>
<feColorMatrix in="SourceAlpha" type="matrix" values="0 0 0 0 0 0 0 0 0 0 0 0 0 0 0 0 0 0 127 0" result="hardAlpha"/>
<feOffset dx="-6" dy="-6"/>
<feGaussianBlur stdDeviation="6"/>
<feColorMatrix type="matrix" values="0 0 0 0 0.325 0 0 0 0 0.325 0 0 0 0 0.325 0 0 0 1 0"/>
<feBlend mode="normal" in2="effect1_dropShadow_16_840" result="effect2_dropShadow_16_840"/>
<feBlend mode="normal" in="SourceGraphic" in2="effect2_dropShadow_16_840" result="shape"/>
</filter>
<linearGradient id="paint0_linear_16_840" x1="78.5" y1="18" x2="78.5" y2="139" gradientUnits="userSpaceOnUse">
<stop stop-color="#FF8E00"/>
<stop offset="1" stop-color="#FF6C01"/>
</linearGradient>
</defs>
</svg>
