<svg width="29" height="29" viewBox="0 0 29 29" fill="none" xmlns="http://www.w3.org/2000/svg">
<g clip-path="url(#clip0_1_264)">
<path d="M12.771 0C5.72926 0 0 5.72926 0 12.771C0 19.8131 5.72926 25.542 12.771 25.542C19.8131 25.542 25.542 19.8131 25.542 12.771C25.542 5.72926 19.8131 0 12.771 0ZM12.771 23.1843C7.02916 23.1843 2.35772 18.5129 2.35772 12.771C2.35772 7.02922 7.02916 2.35772 12.771 2.35772C18.5128 2.35772 23.1843 7.02916 23.1843 12.771C23.1843 18.5128 18.5128 23.1843 12.771 23.1843Z" fill="white"/>
<path d="M28.6545 26.9878L21.8957 20.229C21.4352 19.7684 20.6893 19.7684 20.2288 20.229C19.7682 20.6891 19.7682 21.4357 20.2288 21.8959L26.9876 28.6547C27.2178 28.885 27.5193 29.0001 27.8211 29.0001C28.1225 29.0001 28.4242 28.885 28.6545 28.6547C29.1151 28.1946 29.1151 27.4479 28.6545 26.9878Z" fill="white"/>
</g>
<defs>
<clipPath id="clip0_1_264">
<rect width="29" height="29" fill="white"/>
</clipPath>
</defs>
</svg>
