<svg width="64" height="64" viewBox="0 0 64 64" fill="none" xmlns="http://www.w3.org/2000/svg">
<rect width="64" height="64" rx="32" fill="#474D57"/>
<path d="M42 28.5C42 32.09 39.09 35 35.5 35C35.33 35 35.15 34.99 34.98 34.98C34.73 31.81 32.19 29.27 29.02 29.02C29.01 28.85 29 28.67 29 28.5C29 24.91 31.91 22 35.5 22C39.09 22 42 24.91 42 28.5Z" stroke="#FBFBFB" stroke-width="1.5" stroke-linecap="round" stroke-linejoin="round"/>
<path d="M35 35.5C35 39.09 32.09 42 28.5 42C24.91 42 22 39.09 22 35.5C22 31.91 24.91 29 28.5 29C28.67 29 28.85 29.01 29.02 29.02C32.19 29.27 34.73 31.81 34.98 34.98C34.99 35.15 35 35.33 35 35.5Z" stroke="#FBFBFB" stroke-width="1.5" stroke-linecap="round" stroke-linejoin="round"/>
<path d="M27.62 34.62L28.5 33L29.38 34.62L31 35.5L29.38 36.38L28.5 38L27.62 36.38L26 35.5L27.62 34.62Z" stroke="#FBFBFB" stroke-width="1.5" stroke-linecap="round" stroke-linejoin="round"/>
</svg>
