<svg width="64" height="64" viewBox="0 0 64 64" fill="none" xmlns="http://www.w3.org/2000/svg">
<rect width="64" height="64" rx="32" fill="#474D57"/>
<path d="M32 42.75C26.07 42.75 21.25 37.93 21.25 32C21.25 26.07 26.07 21.25 32 21.25C37.93 21.25 42.75 26.07 42.75 32C42.75 37.93 37.93 42.75 32 42.75ZM32 22.75C26.9 22.75 22.75 26.9 22.75 32C22.75 37.1 26.9 41.25 32 41.25C37.1 41.25 41.25 37.1 41.25 32C41.25 26.9 37.1 22.75 32 22.75Z" fill="white"/>
<path d="M35.71 35.93C35.58 35.93 35.45 35.9 35.33 35.82L32.23 33.97C31.46 33.51 30.89 32.5 30.89 31.61V27.51C30.89 27.1 31.23 26.76 31.64 26.76C32.05 26.76 32.39 27.1 32.39 27.51V31.61C32.39 31.97 32.69 32.5 33 32.68L36.1 34.53C36.46 34.74 36.57 35.2 36.36 35.56C36.21 35.8 35.96 35.93 35.71 35.93Z" fill="white"/>
</svg>
